<?xml version="1.0" encoding="UTF-8" standalone="no"?>
<!-- Created with Inkscape (http://www.inkscape.org/) -->

<svg
   xmlns:dc="http://purl.org/dc/elements/1.1/"
   xmlns:cc="http://creativecommons.org/ns#"
   xmlns:rdf="http://www.w3.org/1999/02/22-rdf-syntax-ns#"
   xmlns:svg="http://www.w3.org/2000/svg"
   xmlns="http://www.w3.org/2000/svg"
   xmlns:sodipodi="http://sodipodi.sourceforge.net/DTD/sodipodi-0.dtd"
   xmlns:inkscape="http://www.inkscape.org/namespaces/inkscape"
   width="1000pt"
   height="500pt"
   viewBox="0 0 352.77778 176.38889"
   version="1.1"
   id="svg1310"
   inkscape:version="0.92.3 (2405546, 2018-03-11)"
   sodipodi:docname="dim1.svg">
  <defs
     id="defs1304" />
  <sodipodi:namedview
     id="base"
     pagecolor="#ffffff"
     bordercolor="#666666"
     borderopacity="1.0"
     inkscape:pageopacity="0.0"
     inkscape:pageshadow="2"
     inkscape:zoom="0.7"
     inkscape:cx="668.19087"
     inkscape:cy="603.69248"
     inkscape:document-units="mm"
     inkscape:current-layer="layer1"
     showgrid="true"
     units="pt"
     inkscape:window-width="1865"
     inkscape:window-height="1145"
     inkscape:window-x="55"
     inkscape:window-y="27"
     inkscape:window-maximized="1"
     inkscape:snap-grids="true">
    <inkscape:grid
       type="xygrid"
       id="grid1844" />
  </sodipodi:namedview>
  <metadata
     id="metadata1307">
    <rdf:RDF>
      <cc:Work
         rdf:about="">
        <dc:format>image/svg+xml</dc:format>
        <dc:type
           rdf:resource="http://purl.org/dc/dcmitype/StillImage" />
        <dc:title />
      </cc:Work>
    </rdf:RDF>
  </metadata>
  <g
     inkscape:label="Layer 1"
     inkscape:groupmode="layer"
     id="layer1"
     transform="translate(0,-120.61109)">
    <path
       style="fill:none;stroke:#000000;stroke-width:0;stroke-linecap:butt;stroke-linejoin:miter;stroke-miterlimit:4;stroke-dasharray:none;stroke-opacity:1"
       d="m 175.34902,134.33818 c -0.3323,-11.0033 -16.69157,-19.0422 -27.20876,-25.45628 -64.527142,-39.352983 -117.52564,44.66773 -121.202679,83.91146 -1.4895,15.897 4.70625,30.65434 12.36761,45.25565 5.224941,9.95782 13.209555,22.3937 24.735247,29.22759 19.774916,11.72507 50.026292,7.49799 72.968962,5.65694 78.23042,-6.27765 118.1238,-19.41735 127.38649,-82.96864 1.55776,-10.68781 10.33988,-25.71942 3.71029,-35.82738 -2.95616,-4.50712 -7.63789,-10.53674 -12.36763,-14.14239 -37.24521,-28.39328 -61.52952,16.97087 -75.4425,16.97087 -0.28855,0 1.23677,-1.4771 1.23677,-1.88565 0,-3.49652 5.07632,-11.10297 6.18382,-14.14238 4.33523,-11.89759 10.0799,-25.73962 17.31465,-36.77021 6.2711,-9.561326 12.14618,-22.191452 7.42059,-32.998896 -0.81074,-1.854137 -4.94706,-7.869104 -4.94706,-8.485428 0,-21.771349 -11.74555,-48.197061 -27.20877,-68.8262696 -3.48368,-4.6475504 -13.3471,-20.7421674 -22.2617,-20.7421674 -5.43451,0 -7.15072,23.1934007 -7.42056,25.4562928 -4.65033,38.9960192 6.57416,55.7383032 55.65427,69.7690972 1.68782,0.482501 15.90933,4.842638 17.31467,3.771303 1.64145,-1.251338 3.03381,-6.997393 4.94706,-9.428256 16.39916,-20.83609 34.96053,-38.333855 68.02189,-41.484329 5.84185,-0.556678 14.40649,-2.854105 18.55143,1.885651 10.65177,12.180297 12.42945,33.207108 -6.18382,41.484329 -24.3329,10.820717 -56.3306,5.595922 -82.86303,8.485428 -5.96013,0.64909 -12.67601,3.771302 -18.55144,3.771302 -2.69871,0 -19.78818,1.662232 -19.78818,3.771302 0,1.602498 4.08171,-0.942822 6.18379,-0.942822"
       id="path1331"
       inkscape:connector-curvature="0" />
    <path
       style="fill:none;stroke:#000000;stroke-width:1.05833328;stroke-linecap:butt;stroke-linejoin:miter;stroke-miterlimit:4;stroke-dasharray:none;stroke-opacity:1"
       d="m 19.804807,227.50721 295.065553,0.80181"
       id="path1842"
       inkscape:connector-curvature="0" />
    <path
       style="fill:none;stroke:#000000;stroke-width:1.05833328;stroke-linecap:butt;stroke-linejoin:miter;stroke-miterlimit:4;stroke-dasharray:none;stroke-opacity:1"
       d="m 312.20833,230.85415 2.64584,-2.64583 -2.64583,-2.64583"
       id="path1846"
       inkscape:connector-curvature="0" />
    <path
       style="fill:none;stroke:#000000;stroke-width:1.05833328;stroke-linecap:butt;stroke-linejoin:miter;stroke-miterlimit:4;stroke-dasharray:none;stroke-opacity:1"
       d="m 19.84375,225.56248 v 3.96875"
       id="path1848"
       inkscape:connector-curvature="0" />
    <text
       xml:space="preserve"
       style="font-style:normal;font-weight:normal;font-size:10.58333302px;line-height:1.25;font-family:sans-serif;letter-spacing:0px;word-spacing:0px;fill:#000000;fill-opacity:1;stroke:none;stroke-width:0.26458332"
       x="16.252975"
       y="241.24849"
       id="text1852"><tspan
         sodipodi:role="line"
         id="tspan1850"
         x="16.252975"
         y="241.24849"
         style="stroke-width:0.26458332">0</tspan></text>
    <text
       xml:space="preserve"
       style="font-style:normal;font-weight:normal;font-size:10.58333302px;line-height:1.25;font-family:sans-serif;letter-spacing:0px;word-spacing:0px;fill:#000000;fill-opacity:1;stroke:none;stroke-width:0.26458332"
       x="277.43451"
       y="241.24849"
       id="text1856"><tspan
         sodipodi:role="line"
         x="277.43451"
         y="241.24849"
         style="stroke-width:0.26458332"
         id="tspan1862">sepal_length</tspan></text>
    <path
       style="fill:none;stroke:#000000;stroke-width:1.05833328;stroke-linecap:butt;stroke-linejoin:miter;stroke-miterlimit:4;stroke-dasharray:none;stroke-opacity:1"
       d="m 141.55209,225.56249 v 3.96875"
       id="path1848-5"
       inkscape:connector-curvature="0" />
    <text
       xml:space="preserve"
       style="font-style:normal;font-weight:normal;font-size:10.58333302px;line-height:1.25;font-family:sans-serif;letter-spacing:0px;word-spacing:0px;fill:#000000;fill-opacity:1;stroke:none;stroke-width:0.26458332"
       x="137.7263"
       y="241.43518"
       id="text1852-2"><tspan
         sodipodi:role="line"
         x="137.7263"
         y="241.43518"
         style="stroke-width:0.26458332"
         id="tspan1931">5</tspan></text>
    <path
       style="fill:#7f0000;fill-opacity:1;stroke:#7f0000;stroke-width:0.680314;stroke-linecap:butt;stroke-linejoin:miter;stroke-miterlimit:4;stroke-dasharray:none;stroke-opacity:1"
       d="m 37.041667,183.22915 c -1.758134,0.0602 -2.139578,0.79849 -3.11958,1.76898 -3.222597,3.19146 2.114308,7.92917 5.35189,6.326 4.97391,-2.46293 3.451107,-9.03088 -2.23231,-8.09498 z"
       id="path1957-0"
       inkscape:connector-curvature="0" />
    <path
       style="fill:#00007f;fill-opacity:1;stroke:#00007f;stroke-width:0.62456787px;stroke-linecap:butt;stroke-linejoin:miter;stroke-opacity:1"
       d="m 38.364584,171.3229 c -0.401184,-0.66956 0.351033,-0.58248 -0.946388,0.50978 -1.03775,0.87361 -1.917863,2.91338 -2.589622,4.03479 -0.242616,0.40491 -1.813375,1.94488 -1.553782,2.16153 0.678113,0.56599 5.271278,0 6.38773,0 0.0894,0 2.762272,0.27608 2.762272,0.14408 0,-0.0125 -3.741371,-6.47634 -4.06021,-6.85019 z"
       id="path1967-0-6"
       inkscape:connector-curvature="0" />
    <path
       style="fill:#007f00;fill-opacity:1;stroke:#007f00;stroke-width:0.62456787px;stroke-linecap:butt;stroke-linejoin:miter;stroke-opacity:1"
       d="m 41.782711,197.00044 c -2.337109,0.52935 0.521717,6.37649 -0.633182,7.34046 -0.503579,0.42033 -3.970187,0 -4.661323,0 -0.240809,0 -2.244351,0.036 -2.244351,0 0,-0.56699 -0.373719,-7.32544 0,-7.63734 0.127123,-0.10604 1.146967,0.14406 1.381135,0.14406 1.903549,0 4.316156,-0.29171 6.157721,0.15269 z"
       id="path1955-3-2"
       inkscape:connector-curvature="0" />
    <text
       xml:space="preserve"
       style="font-style:normal;font-weight:normal;font-size:10.58333302px;line-height:1.25;font-family:sans-serif;letter-spacing:0px;word-spacing:0px;fill:#000000;fill-opacity:1;stroke:none;stroke-width:0.26458332"
       x="47.341518"
       y="177.74849"
       id="text2067"><tspan
         sodipodi:role="line"
         id="tspan2065"
         x="47.341518"
         y="177.74849"
         style="stroke-width:0.26458332">setosa</tspan></text>
    <text
       xml:space="preserve"
       style="font-style:normal;font-weight:normal;font-size:10.58333302px;line-height:1.25;font-family:sans-serif;letter-spacing:0px;word-spacing:0px;fill:#000000;fill-opacity:1;stroke:none;stroke-width:0.26458332"
       x="46.585564"
       y="191.16666"
       id="text2071"><tspan
         sodipodi:role="line"
         id="tspan2069"
         x="46.585564"
         y="191.16666"
         style="stroke-width:0.26458332">versicolor</tspan></text>
    <text
       xml:space="preserve"
       style="font-style:normal;font-weight:normal;font-size:10.58333302px;line-height:1.25;font-family:sans-serif;letter-spacing:0px;word-spacing:0px;fill:#000000;fill-opacity:1;stroke:none;stroke-width:0.26458332"
       x="47.625"
       y="204.39581"
       id="text2075"><tspan
         sodipodi:role="line"
         x="47.625"
         y="204.39581"
         style="stroke-width:0.26458332"
         id="tspan953">virginica</tspan></text>
    <path
       style="fill:#00007f;fill-opacity:1;stroke:#00007f;stroke-width:0.62456787px;stroke-linecap:butt;stroke-linejoin:miter;stroke-opacity:1"
       d="m 121.70834,222.91665 c -0.40119,-0.66956 0.35103,-0.58248 -0.94639,0.50978 -1.03775,0.87361 -1.91786,2.91338 -2.58962,4.03479 -0.24262,0.40491 -1.81338,1.94488 -1.55379,2.16153 0.67812,0.56599 5.27128,0 6.38773,0 0.0894,0 2.76228,0.27608 2.76228,0.14408 0,-0.0125 -3.74137,-6.47634 -4.06021,-6.85019 z"
       id="path1967-0-6-7"
       inkscape:connector-curvature="0" />
    <path
       style="fill:#00007f;fill-opacity:1;stroke:#00007f;stroke-width:0.62456787px;stroke-linecap:butt;stroke-linejoin:miter;stroke-opacity:1"
       d="m 134.9375,222.91665 c -0.40119,-0.66956 0.35103,-0.58248 -0.94639,0.50978 -1.03775,0.87361 -1.91786,2.91338 -2.58962,4.03479 -0.24262,0.40491 -1.81338,1.94488 -1.55379,2.16153 0.67812,0.56599 5.27128,0 6.38773,0 0.0894,0 2.76228,0.27608 2.76228,0.14408 0,-0.0125 -3.74137,-6.47634 -4.06021,-6.85019 z"
       id="path1967-0-6-9"
       inkscape:connector-curvature="0" />
    <path
       style="fill:#00007f;fill-opacity:1;stroke:#00007f;stroke-width:0.62456787px;stroke-linecap:butt;stroke-linejoin:miter;stroke-opacity:1"
       d="m 148.16667,222.91665 c -0.40118,-0.66956 0.35104,-0.58248 -0.94638,0.50978 -1.03775,0.87361 -1.91787,2.91338 -2.58963,4.03479 -0.24261,0.40491 -1.81337,1.94488 -1.55378,2.16153 0.67811,0.56599 5.27128,0 6.38773,0 0.0894,0 2.76227,0.27608 2.76227,0.14408 0,-0.0125 -3.74137,-6.47634 -4.06021,-6.85019 z"
       id="path1967-0-6-2"
       inkscape:connector-curvature="0" />
    <path
       style="fill:#007f00;fill-opacity:1;stroke:#007f00;stroke-width:0.62456787px;stroke-linecap:butt;stroke-linejoin:miter;stroke-opacity:1"
       d="m 213.76188,223.45877 c -2.33711,0.52935 0.52172,6.37649 -0.63318,7.34046 -0.50358,0.42033 -3.97019,0 -4.66132,0 -0.24081,0 -2.24436,0.036 -2.24436,0 0,-0.56699 -0.37371,-7.32544 0,-7.63734 0.12713,-0.10604 1.14697,0.14406 1.38114,0.14406 1.90355,0 4.31616,-0.29171 6.15772,0.15269 z"
       id="path1955-3-2-0"
       inkscape:connector-curvature="0" />
    <path
       style="fill:#007f00;fill-opacity:1;stroke:#007f00;stroke-width:0.62456787px;stroke-linecap:butt;stroke-linejoin:miter;stroke-opacity:1"
       d="m 269.32438,223.45877 c -2.33711,0.52935 0.52172,6.37649 -0.63318,7.34046 -0.50358,0.42033 -3.97019,0 -4.66132,0 -0.24081,0 -2.24436,0.036 -2.24436,0 0,-0.56699 -0.37371,-7.32544 0,-7.63734 0.12713,-0.10604 1.14697,0.14406 1.38114,0.14406 1.90355,0 4.31616,-0.29171 6.15772,0.15269 z"
       id="path1955-3-2-2"
       inkscape:connector-curvature="0" />
    <path
       style="fill:#7f0000;fill-opacity:1;stroke:#7f0000;stroke-width:0.680314;stroke-linecap:butt;stroke-linejoin:miter;stroke-miterlimit:4;stroke-dasharray:none;stroke-opacity:1"
       d="m 230.1875,222.91665 c -1.75814,0.0602 -2.13958,0.79849 -3.11958,1.76898 -3.2226,3.19146 2.1143,7.92917 5.35189,6.326 4.97391,-2.46293 3.4511,-9.03088 -2.23231,-8.09498 z"
       id="path1957-0-3"
       inkscape:connector-curvature="0" />
    <path
       style="fill:#7f0000;fill-opacity:1;stroke:#7f0000;stroke-width:0.680314;stroke-linecap:butt;stroke-linejoin:miter;stroke-miterlimit:4;stroke-dasharray:none;stroke-opacity:1"
       d="m 251.35417,222.91665 c -1.75813,0.0602 -2.13958,0.79849 -3.11958,1.76898 -3.2226,3.19146 2.11431,7.92917 5.35189,6.326 4.97391,-2.46293 3.45111,-9.03088 -2.23231,-8.09498 z"
       id="path1957-0-7"
       inkscape:connector-curvature="0" />
    <path
       style="fill:none;stroke:#fe0000;stroke-width:0.70555558;stroke-linecap:butt;stroke-linejoin:miter;stroke-opacity:1;stroke-miterlimit:4;stroke-dasharray:0.70555558,0.70555558;stroke-dashoffset:0"
       d="m 185.20833,191.16665 c -0.88194,1.00793 -1.82357,1.96661 -2.64583,3.0238 -0.40224,0.51716 0.75595,13.34808 0.75595,15.49703 0,7.28907 0.78712,16.53745 -1.5119,23.43452 -1.85795,5.57385 0.37797,13.97693 0.37797,19.65476 0,2.63862 -0.37797,5.47999 -0.37797,8.31548 0,1.39163 1.75066,3.92896 0.37797,4.15774 -0.74567,0.12428 -1.5119,0 -2.26786,0"
       id="path3208"
       inkscape:connector-curvature="0" />
  </g>
</svg>
