<?xml version="1.0" encoding="UTF-8" standalone="no"?>
<!-- Created with Inkscape (http://www.inkscape.org/) -->

<svg
   xmlns:dc="http://purl.org/dc/elements/1.1/"
   xmlns:cc="http://creativecommons.org/ns#"
   xmlns:rdf="http://www.w3.org/1999/02/22-rdf-syntax-ns#"
   xmlns:svg="http://www.w3.org/2000/svg"
   xmlns="http://www.w3.org/2000/svg"
   xmlns:sodipodi="http://sodipodi.sourceforge.net/DTD/sodipodi-0.dtd"
   xmlns:inkscape="http://www.inkscape.org/namespaces/inkscape"
   width="1000pt"
   height="1000pt"
   viewBox="0 0 352.77778 352.77778"
   version="1.1"
   id="svg1310"
   inkscape:version="0.92.3 (2405546, 2018-03-11)"
   sodipodi:docname="dim2.svg">
  <defs
     id="defs1304" />
  <sodipodi:namedview
     id="base"
     pagecolor="#ffffff"
     bordercolor="#666666"
     borderopacity="1.0"
     inkscape:pageopacity="0.0"
     inkscape:pageshadow="2"
     inkscape:zoom="0.49497475"
     inkscape:cx="783.69426"
     inkscape:cy="709.65709"
     inkscape:document-units="mm"
     inkscape:current-layer="layer1"
     showgrid="true"
     units="pt"
     inkscape:window-width="1920"
     inkscape:window-height="1200"
     inkscape:window-x="0"
     inkscape:window-y="0"
     inkscape:window-maximized="1"
     inkscape:snap-grids="true">
    <inkscape:grid
       type="xygrid"
       id="grid1844" />
  </sodipodi:namedview>
  <metadata
     id="metadata1307">
    <rdf:RDF>
      <cc:Work
         rdf:about="">
        <dc:format>image/svg+xml</dc:format>
        <dc:type
           rdf:resource="http://purl.org/dc/dcmitype/StillImage" />
        <dc:title></dc:title>
      </cc:Work>
    </rdf:RDF>
  </metadata>
  <g
     inkscape:label="Layer 1"
     inkscape:groupmode="layer"
     id="layer1"
     transform="translate(0,55.777799)">
    <path
       style="fill:none;stroke:#000000;stroke-width:0;stroke-linecap:butt;stroke-linejoin:miter;stroke-miterlimit:4;stroke-dasharray:none;stroke-opacity:1"
       d="m 175.34902,134.33818 c -0.3323,-11.0033 -16.69157,-19.0422 -27.20876,-25.45628 -64.527142,-39.352983 -117.52564,44.66773 -121.202679,83.91146 -1.4895,15.897 4.70625,30.65434 12.36761,45.25565 5.224941,9.95782 13.209555,22.3937 24.735247,29.22759 19.774916,11.72507 50.026292,7.49799 72.968962,5.65694 78.23042,-6.27765 118.1238,-19.41735 127.38649,-82.96864 1.55776,-10.68781 10.33988,-25.71942 3.71029,-35.82738 -2.95616,-4.50712 -7.63789,-10.53674 -12.36763,-14.14239 -37.24521,-28.39328 -61.52952,16.97087 -75.4425,16.97087 -0.28855,0 1.23677,-1.4771 1.23677,-1.88565 0,-3.49652 5.07632,-11.10297 6.18382,-14.14238 4.33523,-11.89759 10.0799,-25.73962 17.31465,-36.77021 6.2711,-9.561326 12.14618,-22.191452 7.42059,-32.998896 -0.81074,-1.854137 -4.94706,-7.869104 -4.94706,-8.485428 0,-21.771349 -11.74555,-48.197061 -27.20877,-68.8262696 -3.48368,-4.6475504 -13.3471,-20.7421674 -22.2617,-20.7421674 -5.43451,0 -7.15072,23.1934007 -7.42056,25.4562928 -4.65033,38.9960192 6.57416,55.7383032 55.65427,69.7690972 1.68782,0.482501 15.90933,4.842638 17.31467,3.771303 1.64145,-1.251338 3.03381,-6.997393 4.94706,-9.428256 16.39916,-20.83609 34.96053,-38.333855 68.02189,-41.484329 5.84185,-0.556678 14.40649,-2.854105 18.55143,1.885651 10.65177,12.180297 12.42945,33.207108 -6.18382,41.484329 -24.3329,10.820717 -56.3306,5.595922 -82.86303,8.485428 -5.96013,0.64909 -12.67601,3.771302 -18.55144,3.771302 -2.69871,0 -19.78818,1.662232 -19.78818,3.771302 0,1.602498 4.08171,-0.942822 6.18379,-0.942822"
       id="path1331"
       inkscape:connector-curvature="0" />
    <path
       style="fill:none;stroke:#000000;stroke-width:1.05798056;stroke-linecap:butt;stroke-linejoin:miter;stroke-miterlimit:4;stroke-dasharray:none;stroke-opacity:1"
       d="m 21.12772,263.22595 295.06555,0.80181"
       id="path1842"
       inkscape:connector-curvature="0" />
    <path
       style="fill:none;stroke:#000000;stroke-width:1.05833328;stroke-linecap:butt;stroke-linejoin:miter;stroke-miterlimit:4;stroke-dasharray:none;stroke-opacity:1"
       d="m 313.53124,266.57289 2.64584,-2.64583 -2.64583,-2.64583"
       id="path1846"
       inkscape:connector-curvature="0" />
    <path
       style="fill:none;stroke:#000000;stroke-width:1.05833328;stroke-linecap:butt;stroke-linejoin:miter;stroke-miterlimit:4;stroke-dasharray:none;stroke-opacity:1"
       d="m 21.166663,261.28122 v 3.96875"
       id="path1848"
       inkscape:connector-curvature="0" />
    <text
       xml:space="preserve"
       style="font-style:normal;font-weight:normal;font-size:10.58333302px;line-height:1.25;font-family:sans-serif;letter-spacing:0px;word-spacing:0px;fill:#000000;fill-opacity:1;stroke:none;stroke-width:0.26458332"
       x="17.57589"
       y="276.96722"
       id="text1852"><tspan
         sodipodi:role="line"
         id="tspan1850"
         x="17.57589"
         y="276.96722"
         style="stroke-width:0.26458332">0</tspan></text>
    <text
       xml:space="preserve"
       style="font-style:normal;font-weight:normal;font-size:10.58333302px;line-height:1.25;font-family:sans-serif;letter-spacing:0px;word-spacing:0px;fill:#000000;fill-opacity:1;stroke:none;stroke-width:0.26458332"
       x="278.75745"
       y="276.96722"
       id="text1856"><tspan
         sodipodi:role="line"
         x="278.75745"
         y="276.96722"
         style="stroke-width:0.26458332"
         id="tspan1862">sepal_length</tspan></text>
    <path
       style="fill:none;stroke:#000000;stroke-width:1.22205782;stroke-linecap:butt;stroke-linejoin:miter;stroke-miterlimit:4;stroke-dasharray:none;stroke-opacity:1"
       d="m 142.875,261.28123 v 5.29167"
       id="path1848-5"
       inkscape:connector-curvature="0" />
    <text
       xml:space="preserve"
       style="font-style:normal;font-weight:normal;font-size:10.58333302px;line-height:1.25;font-family:sans-serif;letter-spacing:0px;word-spacing:0px;fill:#000000;fill-opacity:1;stroke:none;stroke-width:0.26458332"
       x="139.04921"
       y="277.15393"
       id="text1852-2"><tspan
         sodipodi:role="line"
         x="139.04921"
         y="277.15393"
         style="stroke-width:0.26458332"
         id="tspan1931">5</tspan></text>
    <path
       style="fill:#7f0000;fill-opacity:1;stroke:#7f0000;stroke-width:0.680314;stroke-linecap:butt;stroke-linejoin:miter;stroke-miterlimit:4;stroke-dasharray:none;stroke-opacity:1"
       d="m 252.67709,-13.885428 c -1.75814,0.0602 -2.13958,0.79849 -3.11958,1.76898 -3.2226,3.1914601 2.1143,7.9291701 5.35189,6.3260001 4.97391,-2.46293 3.4511,-9.0308801 -2.23231,-8.0949801 z"
       id="path1957-0"
       inkscape:connector-curvature="0" />
    <path
       style="fill:#00007f;fill-opacity:1;stroke:#00007f;stroke-width:0.62456787px;stroke-linecap:butt;stroke-linejoin:miter;stroke-opacity:1"
       d="m 254,-25.791678 c -0.40118,-0.66956 0.35104,-0.58248 -0.94638,0.50978 -1.03775,0.87361 -1.91787,2.91338 -2.58963,4.03479 -0.24261,0.40491 -1.81337,1.94488 -1.55378,2.16153 0.67811,0.56599 5.27128,0 6.38773,0 0.0894,0 2.76227,0.27608 2.76227,0.14408 0,-0.0125 -3.74137,-6.47634 -4.06021,-6.85019 z"
       id="path1967-0-6"
       inkscape:connector-curvature="0" />
    <path
       style="fill:#007f00;fill-opacity:1;stroke:#007f00;stroke-width:0.62456787px;stroke-linecap:butt;stroke-linejoin:miter;stroke-opacity:1"
       d="m 257.41813,-0.11413789 c -2.33711,0.52935 0.52172,6.37648999 -0.63318,7.34045999 -0.50358,0.42033 -3.97019,0 -4.66132,0 -0.24081,0 -2.24436,0.036 -2.24436,0 0,-0.56699 -0.37371,-7.32543999 0,-7.63733999 0.12713,-0.10604 1.14697,0.14406 1.38114,0.14406 1.90355,0 4.31616,-0.29171 6.15772,0.15269 z"
       id="path1955-3-2"
       inkscape:connector-curvature="0" />
    <text
       xml:space="preserve"
       style="font-style:normal;font-weight:normal;font-size:10.58333302px;line-height:1.25;font-family:sans-serif;letter-spacing:0px;word-spacing:0px;fill:#000000;fill-opacity:1;stroke:none;stroke-width:0.26458332"
       x="262.97696"
       y="-19.366089"
       id="text2067"><tspan
         sodipodi:role="line"
         id="tspan2065"
         x="262.97696"
         y="-19.366089"
         style="stroke-width:0.26458332">setosa</tspan></text>
    <text
       xml:space="preserve"
       style="font-style:normal;font-weight:normal;font-size:10.58333302px;line-height:1.25;font-family:sans-serif;letter-spacing:0px;word-spacing:0px;fill:#000000;fill-opacity:1;stroke:none;stroke-width:0.26458332"
       x="262.22101"
       y="-5.9479222"
       id="text2071"><tspan
         sodipodi:role="line"
         id="tspan2069"
         x="262.22101"
         y="-5.9479222"
         style="stroke-width:0.26458332">versicolor</tspan></text>
    <text
       xml:space="preserve"
       style="font-style:normal;font-weight:normal;font-size:10.58333302px;line-height:1.25;font-family:sans-serif;letter-spacing:0px;word-spacing:0px;fill:#000000;fill-opacity:1;stroke:none;stroke-width:0.26458332"
       x="263.26044"
       y="7.2812343"
       id="text2075"><tspan
         sodipodi:role="line"
         id="tspan2073"
         x="263.26044"
         y="7.2812343"
         style="stroke-width:0.26458332">virgnica</tspan></text>
    <path
       style="fill:none;stroke:#000000;stroke-width:1.05833333;stroke-linecap:butt;stroke-linejoin:miter;stroke-opacity:1;stroke-miterlimit:4;stroke-dasharray:none"
       d="M 21.166666,262.60413 V 21.83331 l 5.291667,5.291669"
       id="path2334"
       inkscape:connector-curvature="0" />
    <path
       style="fill:none;stroke:#000000;stroke-width:1.05833333;stroke-linecap:butt;stroke-linejoin:miter;stroke-opacity:1;stroke-miterlimit:4;stroke-dasharray:none"
       d="M 21.166666,21.83331 15.875,27.124977"
       id="path2336"
       inkscape:connector-curvature="0" />
    <text
       xml:space="preserve"
       style="font-style:normal;font-weight:normal;font-size:10.58333302px;line-height:1.25;font-family:sans-serif;letter-spacing:0px;word-spacing:0px;fill:#000000;fill-opacity:1;stroke:none;stroke-width:0.26458332"
       x="31.75"
       y="24.479147"
       id="text2340"><tspan
         sodipodi:role="line"
         id="tspan2338"
         x="31.75"
         y="24.479147"
         style="stroke-width:0.26458332">petal_length</tspan></text>
    <path
       style="fill:none;stroke:#000000;stroke-width:1.22205806;stroke-linecap:butt;stroke-linejoin:miter;stroke-miterlimit:4;stroke-dasharray:none;stroke-opacity:1"
       d="M 18.520833,150.15623 H 23.8125"
       id="path2342"
       inkscape:connector-curvature="0" />
    <text
       xml:space="preserve"
       style="font-style:normal;font-weight:normal;font-size:10.58333302px;line-height:1.25;font-family:sans-serif;letter-spacing:0px;word-spacing:0px;fill:#000000;fill-opacity:1;stroke:none;stroke-width:0.26458332"
       x="10.583333"
       y="154.12497"
       id="text2348"><tspan
         sodipodi:role="line"
         id="tspan2346"
         x="10.583333"
         y="154.12497"
         style="stroke-width:0.26458332">3</tspan></text>
    <path
       style="fill:#00007f;fill-opacity:1;stroke:#00007f;stroke-width:0.62456787px;stroke-linecap:butt;stroke-linejoin:miter;stroke-opacity:1"
       d="m 149.48958,221.59373 c -0.40118,-0.66956 0.35104,-0.58248 -0.94638,0.50978 -1.03775,0.87361 -1.91787,2.91338 -2.58963,4.03479 -0.24261,0.40491 -1.81337,1.94488 -1.55378,2.16153 0.67811,0.56599 5.27128,0 6.38773,0 0.0894,0 2.76227,0.27608 2.76227,0.14408 0,-0.0125 -3.74137,-6.47634 -4.06021,-6.85019 z"
       id="path1967-0-6-5"
       inkscape:connector-curvature="0" />
    <path
       style="fill:#00007f;fill-opacity:1;stroke:#00007f;stroke-width:0.62456787px;stroke-linecap:butt;stroke-linejoin:miter;stroke-opacity:1"
       d="m 128.32291,221.59373 c -0.40118,-0.66956 0.35104,-0.58248 -0.94638,0.50978 -1.03775,0.87361 -1.91787,2.91338 -2.58963,4.03479 -0.24261,0.40491 -1.81337,1.94488 -1.55378,2.16153 0.67811,0.56599 5.27128,0 6.38773,0 0.0894,0 2.76227,0.27608 2.76227,0.14408 0,-0.0125 -3.74137,-6.47634 -4.06021,-6.85019 z"
       id="path1967-0-6-9"
       inkscape:connector-curvature="0" />
    <path
       style="fill:#00007f;fill-opacity:1;stroke:#00007f;stroke-width:0.62456787px;stroke-linecap:butt;stroke-linejoin:miter;stroke-opacity:1"
       d="m 107.15624,232.17707 c -0.40118,-0.66956 0.35104,-0.58248 -0.94638,0.50978 -1.03775,0.87361 -1.91787,2.91338 -2.58963,4.03479 -0.24261,0.40491 -1.81337,1.94488 -1.55378,2.16153 0.67811,0.56599 5.27128,0 6.38773,0 0.0894,0 2.76227,0.27608 2.76227,0.14408 0,-0.0125 -3.74137,-6.47634 -4.06021,-6.85019 z"
       id="path1967-0-6-2"
       inkscape:connector-curvature="0" />
    <path
       style="fill:#7f0000;fill-opacity:1;stroke:#7f0000;stroke-width:0.680314;stroke-linecap:butt;stroke-linejoin:miter;stroke-miterlimit:4;stroke-dasharray:none;stroke-opacity:1"
       d="m 211.66667,106.49998 c -1.75814,0.0602 -2.13958,0.79849 -3.11958,1.76898 -3.2226,3.19146 2.1143,7.92917 5.35189,6.326 4.97391,-2.46293 3.4511,-9.03088 -2.23231,-8.09498 z"
       id="path1957-0-2"
       inkscape:connector-curvature="0" />
    <path
       style="fill:#7f0000;fill-opacity:1;stroke:#7f0000;stroke-width:0.680314;stroke-linecap:butt;stroke-linejoin:miter;stroke-miterlimit:4;stroke-dasharray:none;stroke-opacity:1"
       d="m 190.5,127.66664 c -1.75814,0.0602 -2.13958,0.79849 -3.11958,1.76898 -3.2226,3.19146 2.1143,7.92917 5.35189,6.326 4.97391,-2.46293 3.4511,-9.03088 -2.23231,-8.09498 z"
       id="path1957-0-8"
       inkscape:connector-curvature="0" />
    <path
       style="fill:#007f00;fill-opacity:1;stroke:#007f00;stroke-width:0.62456787px;stroke-linecap:butt;stroke-linejoin:miter;stroke-opacity:1"
       d="m 237.57437,67.354604 c -2.33711,0.52935 0.52172,6.37649 -0.63318,7.34046 -0.50358,0.42033 -3.97019,0 -4.66132,0 -0.24081,0 -2.24436,0.036 -2.24436,0 0,-0.56699 -0.37371,-7.32544 0,-7.63734 0.12713,-0.10604 1.14697,0.14406 1.38114,0.14406 1.90355,0 4.31616,-0.29171 6.15772,0.15269 z"
       id="path1955-3-2-9"
       inkscape:connector-curvature="0" />
    <path
       style="fill:#007f00;fill-opacity:1;stroke:#007f00;stroke-width:0.62456787px;stroke-linecap:butt;stroke-linejoin:miter;stroke-opacity:1"
       d="m 174.07437,88.52127 c -2.33711,0.52935 0.52172,6.37649 -0.63318,7.34046 -0.50358,0.42033 -3.97019,0 -4.66132,0 -0.24081,0 -2.24436,0.036 -2.24436,0 0,-0.56699 -0.37371,-7.32544 0,-7.63734 0.12713,-0.10604 1.14697,0.14406 1.38114,0.14406 1.90355,0 4.31616,-0.29171 6.15772,0.15269 z"
       id="path1955-3-2-9-7"
       inkscape:connector-curvature="0" />
    <path
       style="fill:none;stroke:#ff0000;stroke-width:0.70555558;stroke-linecap:butt;stroke-linejoin:miter;stroke-opacity:1;stroke-miterlimit:4;stroke-dasharray:0.70555558, 0.70555557999999996;stroke-dashoffset:0"
       d="m 63.499999,95.916643 c 8.313685,9.435707 23.882945,16.920437 32.717031,25.754527 2.915393,2.91539 9.04729,4.23644 11.75986,6.949 7.95051,7.95051 34.78395,26.02721 44.90128,29.39965 2.5345,0.84483 14.05469,10.00648 17.10525,12.2944 3.45977,2.59483 8.95414,5.12287 12.82893,6.41447 7.01349,2.33783 14.12445,8.39857 20.84703,11.75986 5.33153,2.66576 11.91251,8.17074 16.03617,12.2944 6.33543,6.33542 17.13016,11.06375 24.5888,16.03618 3.40422,2.26946 7.55324,6.44929 10.69078,8.01806 1.90861,0.95433 6.87423,3.97753 4.31653,3.37111"
       id="path2485"
       inkscape:connector-curvature="0" />
    <path
       style="fill:none;stroke:#ff0000;stroke-width:0.70555556;stroke-linecap:butt;stroke-linejoin:miter;stroke-opacity:1;stroke-miterlimit:4;stroke-dasharray:0.70555556,0.70555556;stroke-dashoffset:0"
       d="m 47.625,164.70831 c 4.019743,-2.71843 6.492611,-3.33229 10.105218,-5.13859 1.454841,-0.72742 2.066912,-3.17161 3.207234,-3.74177 3.372525,-1.68627 6.431696,-3.75326 9.621703,-5.87994 2.281415,-1.52094 5.112784,-1.3479 7.483546,-2.13815 6.03177,-2.01059 12.812736,-6.1391 18.708867,-9.08716 6.083512,-3.04176 12.360242,-9.10912 18.708862,-11.22532 21.84144,-7.28048 41.03321,-15.45953 62.00653,-22.45064 5.75178,-1.91726 11.14215,-6.030387 17.10525,-8.018088 7.77497,-2.591657 16.39747,-1.724049 24.05426,-4.276312 8.60365,-2.867882 17.20665,-7.873706 25.65788,-10.690781 11.6436,-3.881204 42.3651,-12.231361 46.75731,-17.894911"
       id="path2487"
       inkscape:connector-curvature="0" />
  </g>
</svg>
