<?xml version="1.0" encoding="UTF-8" standalone="no"?>
<!-- Created with Inkscape (http://www.inkscape.org/) -->

<svg
   xmlns:osb="http://www.openswatchbook.org/uri/2009/osb"
   xmlns:dc="http://purl.org/dc/elements/1.1/"
   xmlns:cc="http://creativecommons.org/ns#"
   xmlns:rdf="http://www.w3.org/1999/02/22-rdf-syntax-ns#"
   xmlns:svg="http://www.w3.org/2000/svg"
   xmlns="http://www.w3.org/2000/svg"
   xmlns:sodipodi="http://sodipodi.sourceforge.net/DTD/sodipodi-0.dtd"
   xmlns:inkscape="http://www.inkscape.org/namespaces/inkscape"
   width="1000pt"
   height="1000pt"
   viewBox="0 0 352.77779 352.77779"
   version="1.1"
   id="svg8"
   sodipodi:docname="map.svg"
   inkscape:version="0.92.3 (2405546, 2018-03-11)">
  <defs
     id="defs2">
    <linearGradient
       id="linearGradient6115"
       osb:paint="solid">
      <stop
         style="stop-color:#000000;stop-opacity:1;"
         offset="0"
         id="stop6113" />
    </linearGradient>
  </defs>
  <sodipodi:namedview
     id="base"
     pagecolor="#ffffff"
     bordercolor="#666666"
     borderopacity="1.0"
     inkscape:pageopacity="0.0"
     inkscape:pageshadow="2"
     inkscape:zoom="0.49497475"
     inkscape:cx="221.96299"
     inkscape:cy="839.70508"
     inkscape:document-units="pt"
     inkscape:current-layer="layer1"
     showgrid="true"
     inkscape:window-width="1865"
     inkscape:window-height="1145"
     inkscape:window-x="55"
     inkscape:window-y="27"
     inkscape:window-maximized="1"
     inkscape:snap-grids="true"
     inkscape:snap-to-guides="false"
     inkscape:snap-text-baseline="false"
     units="pt">
    <inkscape:grid
       type="xygrid"
       id="grid950" />
  </sodipodi:namedview>
  <metadata
     id="metadata5">
    <rdf:RDF>
      <cc:Work
         rdf:about="">
        <dc:format>image/svg+xml</dc:format>
        <dc:type
           rdf:resource="http://purl.org/dc/dcmitype/StillImage" />
        <dc:title></dc:title>
      </cc:Work>
    </rdf:RDF>
  </metadata>
  <g
     inkscape:label="Layer 1"
     inkscape:groupmode="layer"
     id="layer1"
     transform="translate(0,55.777803)">
    <path
       style="fill:#204845;fill-opacity:0.26553674;stroke:#000000;stroke-width:0.49597657px;stroke-linecap:butt;stroke-linejoin:miter;stroke-opacity:1"
       d="m 77.365365,171.05061 c 4.145092,7.87774 -2.230421,59.38323 0.975831,62.76391 0.144701,0.15268 33.671624,-3.66622 37.081714,-4.11567 2.23736,-0.29489 18.94738,3.17258 20.00461,2.05786 1.85985,-1.96106 2.8786,-8.16212 3.41542,-10.80365 0.61327,-3.01755 8.41398,-52.86332 5.85501,-55.56147 -0.0201,-0.0213 -11.30654,5.41662 -12.68585,5.65902 -3.39382,0.59644 -9.33311,1.22149 -12.68585,0.51446 -3.07188,-0.64781 -6.62304,-3.38209 -8.2946,-5.1446 -1.5689,-1.65421 -12.849475,-2.51476 -15.613348,-1.54335 -0.975852,0.34298 -17.956668,6.57951 -18.052937,6.17349 -0.197234,-0.83183 0.975831,-1.37189 1.463752,-2.05786"
       id="path815"
       inkscape:connector-curvature="0" />
    <path
       style="fill:#204845;fill-opacity:0.26553674;stroke:#000000;stroke-width:0.49597657px;stroke-linecap:butt;stroke-linejoin:miter;stroke-opacity:1"
       d="m 76.877444,89.76623 c -1.04171,3.646208 -0.346888,7.270776 -1.463751,10.80361 -3.884398,12.28709 1.463751,32.23282 1.463751,44.2434 0,1.54936 0.03404,9.26026 -0.975832,9.26026 -1.311239,0 2.730529,-1.13277 3.903339,-0.51445 3.664722,1.93202 7.098743,1.02891 11.222094,1.02891 5.599424,0 11.214235,-3.6033 17.077105,-2.05786 4.36895,1.15167 13.16203,1.54957 17.07711,-0.51442 4.02952,-2.12439 19.9652,1.5849 20.00461,1.54337 0.93415,-0.985 2.60838,-26.59334 4.39124,-30.35303 2.24961,-4.74399 0.48792,-22.19174 0.48792,-28.809688 0,-2.572276 0,-5.144576 0,-7.716864 0,-0.221587 -0.60292,-1.543375 -0.48792,-1.543375 0.67779,0 -4.54845,1.203276 -7.80665,-0.514463 -4.99199,-2.631757 -14.84719,-0.514438 -20.98045,-0.514438 -9.21855,0 -17.66643,-0.718249 -25.859625,3.601188 -4.662494,2.458065 -9.466895,-4.731995 -18.052941,2.05785 z"
       id="path819"
       inkscape:connector-curvature="0" />
    <path
       style="fill:#204845;fill-opacity:0.26553674;stroke:#000000;stroke-width:0.49597657px;stroke-linecap:butt;stroke-linejoin:miter;stroke-opacity:1"
       d="m 76.877444,5.909502 c 1.810698,10.133238 0,19.447321 0,29.8386 0,5.029434 -1.264312,27.17241 0.487921,30.867488 0.359768,0.758663 -0.546996,3.024467 0,3.601237 0.45797,0.482858 1.225216,-0.388725 1.463752,-0.514462 1.880941,-0.991643 9.170201,-0.514475 11.710012,-0.514475 16.814471,0 33.400861,1.028937 50.255491,1.028937 1.55799,0 9.07954,0.916955 9.75833,-0.514462 0.92468,-1.949962 0.43661,-6.471591 0.97583,-8.745826 1.18954,-5.016901 2.70184,-17.928885 1.46375,-23.150599 -1.5512,-6.542309 -1.92525,-13.45943 0,-19.549431 0.59966,-1.896809 -0.84146,-4.913436 0,-6.687958 0.53847,-1.13547 0.7633,-9.9987719 0.48793,-10.2891517 -0.16265,-0.1714387 -0.32527,0.3429702 -0.48793,0.5144637 -0.12916,0.1363055 -1.26284,0 -1.46375,0 -1.42442,0 -5.43447,0.9933714 -6.34291,0.5144467 -1.30065,-0.6857014 -2.50667,-0.023734 -3.90333,-0.5144467 -6.0542,-2.12784718 -14.51698,-5.8729062 -20.98045,-3.6012287 -1.38446,0.4865956 -2.60214,-0.1714401 -3.90334,0.5144637 -2.05572,1.08378142 -5.1903,-0.093073 -7.31877,1.0289273 -1.16015,0.61164439 -3.65135,0.0831428 -4.87916,0.51446499 C 99.338508,1.9594158 92.888288,-1.5024555 88.099543,1.0221486 85.315894,2.4896807 73.2335,0.14626488 76.877444,5.909502 Z"
       id="path823"
       inkscape:connector-curvature="0" />
    <path
       style="fill:#204845;fill-opacity:0.26553674;stroke:#000000;stroke-width:0.49597657px;stroke-linecap:butt;stroke-linejoin:miter;stroke-opacity:1"
       d="m 165.19046,1.793863 c 2.52111,18.618159 0,37.574893 0,56.590398 0,1.365043 -2.5561,11.318104 -0.24395,11.318104 0.25716,0 0.0621,-0.579976 0.24395,-0.7717 0.16521,-0.174022 1.41516,-1.183331 1.70771,-1.286162 1.57315,-0.55289 3.60444,-0.485478 5.12314,-1.286163 0.19164,-0.101006 11.61525,-0.804973 11.71,-0.77165 2.30452,0.809932 4.75776,1.50067 7.07482,2.31505 2.25475,0.792498 5.49995,-0.771688 7.56271,-0.771688 1.76983,0 5.83,0.372668 7.56273,1.28615 2.01293,1.061225 10.04965,-1.28615 12.92981,-1.28615 0.89578,0 1.76013,0.459135 2.43958,-0.257189 0.0951,-0.100274 0,-0.871948 0,-1.028912 0,-3.65308 0,-7.360155 0,-11.060846 0,-5.842776 -0.41584,-12.031354 0.48792,-17.748807 0.52524,-3.322898 -0.62607,-6.988509 0,-10.289168 0.9706,-5.116993 1.46375,-10.062603 1.46375,-15.433737 0,-1.3155 -0.12961,-8.68548 -0.73189,-9.0030285 -2.1795,-1.1490454 -11.04383,1.6060257 -11.22209,1.543374 -3.77588,-1.3271072 -7.67604,-0.029802 -11.46605,-1.0289104 -1.74824,-0.4608425 -7.83215,-3.20193513 -9.51439,-2.31506882 -5.92212,3.12213842 -10.97653,3.08761182 -16.83313,0 -1.10072,-0.58028083 -4.35898,1.76657462 -4.87919,2.31506882 -0.11372,0.1201206 -2.90128,-0.8933773 -3.41543,-1.028909 z"
       id="path827"
       inkscape:connector-curvature="0" />
    <path
       style="fill:#204845;fill-opacity:0.26553674;stroke:#000000;stroke-width:0.49597657px;stroke-linecap:butt;stroke-linejoin:miter;stroke-opacity:1"
       d="m 164.70254,84.878868 c 1.11448,1.839235 0.11384,4.218372 0.73189,6.173488 2.77506,8.778068 -1.62526,18.353794 0.48792,27.266304 0.52619,2.21926 1.23057,15.92546 0.24396,18.00604 -0.7364,1.55286 -0.73189,10.79304 -0.73189,12.60421 0,0.40963 -0.24724,2.31162 0,2.5723 0.36915,0.38922 5.04461,-1.3443 5.61106,-1.54338 4.51826,-1.58802 8.92744,0.1238 13.17374,-0.77171 2.3688,-0.49952 4.7229,-1.04738 7.07482,-1.54336 2.45464,-0.51764 4.65457,0.63797 7.0748,0 1.34427,-0.35436 17.75838,0.10209 19.02877,0.77169 0.5278,0.27825 4.04795,0.72397 4.39127,0 0.95345,-2.01063 -0.10418,-11.20583 -0.48792,-13.63315 -0.84536,-5.34797 0.50845,-11.46974 1.21978,-16.71989 0.67566,-4.9868 -0.18035,-10.557 0.97585,-15.43374 0.59144,-2.49449 2.94008,-15.934934 1.21976,-17.748802 -0.27728,-0.292388 -0.31531,-3.85845 -0.4879,-3.85845 -0.20249,0 -3.776,1.9311 -5.61105,1.286161 -3.19633,-1.123423 -7.74461,-5.032338 -11.22209,-4.115687 -5.46723,1.441189 -10.73017,5.659904 -16.83315,4.3729 -1.74199,-0.367342 -3.13882,-1.856304 -4.87917,-2.31505 -1.71305,-0.451557 -18.01208,1.757506 -18.54086,2.31505 -0.80996,0.854051 -1.56718,1.088626 -2.43959,2.315076 z"
       id="path829"
       inkscape:connector-curvature="0" />
    <path
       style="fill:#204845;fill-opacity:0.26553674;stroke:#000000;stroke-width:0.49597657px;stroke-linecap:butt;stroke-linejoin:miter;stroke-opacity:1"
       d="m 234.71867,1.793863 c -0.25483,0.8808512 0.74299,0.7950952 0.97584,1.2861416 1.30834,2.7590454 -1.35972,10.4706714 -0.48792,14.1475954 1.30522,5.504883 -0.15354,11.374092 0.73189,16.977109 0.74094,4.687568 0.48792,9.595248 0.48792,14.404828 0,3.847903 -0.73189,7.894506 -0.73189,11.832539 0,3.363775 -0.32809,7.033936 -0.24408,6.945214 3.43373,-3.620549 10.86683,-2.184209 15.12541,-1.286163 3.93059,0.828891 12.86409,0.280363 16.58923,-1.028913 3.92258,-1.378637 9.27072,2.057692 12.68583,0.257201 1.40817,-0.742361 6.45797,1.679311 7.56271,0.514462 0.90081,-0.949827 0.0558,-6.326797 0.24407,-7.716867 0.98489,-7.269342 1.49355,-14.956466 0.4879,-22.378944 -1.37592,-10.155441 0.24409,-20.211917 0.24409,-30.353028 0,-0.5460476 0.35773,-4.51016837 0.24408,-4.63010234 -0.84468,-0.89063594 -9.7227,0.0588601 -11.2221,-0.2571959 -2.48594,-0.52423153 -5.96314,-1.48149351 -8.53857,-1.02890914 -1.10386,0.1938802 -2.09873,0.74614542 -3.17145,1.02890914 -2.2015,0.58029904 -4.76981,-1.10874249 -6.83087,-1.54335456 -2.01554,-0.4250842 -4.8998,0.77165962 -7.07478,0.77165962 -1.67498,0 -2.89997,-0.89302762 -4.39126,-1.28612322 -4.66033,-1.2284743 -9.20395,1.5083125 -12.68583,3.3439609 z"
       id="path831"
       inkscape:connector-curvature="0" />
    <path
       style="fill:#204845;fill-opacity:0.26553674;stroke:#000000;stroke-width:0.49597657px;stroke-linecap:butt;stroke-linejoin:miter;stroke-opacity:1"
       d="m 235.93848,81.020418 c -1.4397,7.150924 -1.68806,14.786351 -0.48792,22.378952 0.39849,2.52111 -0.346,5.48596 0.24408,7.97407 1.82819,7.71058 0.24408,17.15843 0.24408,24.95126 0,2.65801 0,5.31606 0,7.97409 0,1.66025 -0.73189,3.13368 -0.73189,3.08675 0,-0.36327 9.96882,-1.58776 10.97814,-1.8006 5.05574,-1.06616 18.47822,0.75518 23.42005,2.05782 3.46679,0.91385 10.24807,-2.48719 13.41769,-3.60119 0.90949,-0.31965 5.00378,-0.3886 5.61108,-1.02892 1.14335,-1.20555 0.94786,-7.02537 1.2198,-8.74581 0.64184,-4.06072 1.16712,-8.46803 1.95165,-12.6042 0.47288,-2.49291 0.0129,-5.78778 -0.24407,-8.23136 -0.70103,-6.65234 -0.73189,-13.59621 -0.73189,-20.321099 0,-1.964911 0.87874,-11.934895 -0.24383,-13.118665 -0.10332,-0.108923 -8.27656,0 -9.27045,0 -3.91359,0 -13.33247,-1.744834 -16.83315,-0.514474 -7.78107,2.734784 -20.65692,1.543376 -28.54316,1.543376 z"
       id="path835"
       inkscape:connector-curvature="0" />
    <path
       style="fill:#204845;fill-opacity:0.26553674;stroke:#000000;stroke-width:0.49597657px;stroke-linecap:butt;stroke-linejoin:miter;stroke-opacity:1"
       d="m 235.69451,163.07649 c -0.57993,17.95737 -1.63807,36.37928 1.70771,54.01813 0.88024,4.64067 -0.24382,8.11589 -0.24382,12.347 0,0.32837 -0.39473,1.3844 -0.24409,1.54337 0.46902,0.49458 7.73319,-1.28614 10.49021,-1.28614 3.15528,0 7.14324,-1.07517 10.24626,-0.2572 1.16361,0.30672 5.50227,1.34348 6.58688,0.7717 1.22218,-0.64431 5.56901,-3.49476 8.29461,-2.05783 1.87321,0.98753 14.37672,2.07559 15.61336,0.77167 1.89057,-1.99342 0.98046,-15.98248 1.46377,-19.54942 0.30932,-2.28317 1.03543,-4.68729 1.46372,-6.94519 0.8399,-4.42803 4.08615,-37.07323 0.24408,-39.09882 -4.41523,-2.32766 -13.95069,-1.58532 -19.02878,-0.51447 -2.19562,0.46304 -4.55077,-0.34228 -6.58689,-0.77165 -1.44375,-0.30447 -3.24497,0.22132 -4.63522,0.51444 -1.77822,0.37499 -3.40233,-0.51444 -5.12314,-0.51444 -4.26544,0 -10.57962,-1.70636 -13.66168,1.54336 -1.2371,1.30441 -4.90589,-1.40068 -6.58686,-0.51447 z"
       id="path837"
       inkscape:connector-curvature="0" />
    <path
       style="fill:#204845;fill-opacity:0.26553674;stroke:#000000;stroke-width:0.49597657px;stroke-linecap:butt;stroke-linejoin:miter;stroke-opacity:1"
       d="m 163.2388,163.33374 c 0.36292,1.29061 0.48793,2.25432 0.48793,3.60122 0,3.74062 -1.3686,8.11816 -0.48793,11.83254 1.0201,4.30237 1.4929,9.18739 2.19563,13.63315 0.64996,4.11195 0.4138,8.45583 0.97582,12.60423 0.65608,4.84224 -0.24394,10.06244 -0.24394,14.91928 0,3.07147 -0.73188,6.13189 -0.73188,9.00301 0,0.45289 -0.26593,3.6012 -0.24397,3.6012 0.54118,0 1.59669,-0.61379 2.19565,-0.77166 0.44357,-0.11721 13.1184,0.19413 13.41772,0.25718 5.48664,1.15702 16.97173,4.59361 22.68814,3.08676 3.97439,-1.04766 7.36033,-2.73539 11.46607,-3.60123 1.00764,-0.21233 5.77657,0.33995 6.34293,-0.25718 0.3652,-0.38506 0,-3.07378 0,-3.60118 0,-8.13746 0.97581,-15.83749 0.97581,-23.92231 0,-10.06218 -2.36956,-22.3432 0.48792,-31.38196 0.33105,-1.04714 0.13238,-8.48855 -0.48792,-8.48855 -0.12817,0 -0.98108,0.70875 -1.21978,0.77166 -0.95671,0.25217 -8.39358,-0.5353 -9.51438,-0.77166 -1.56852,-0.33076 -2.35392,-2.5306 -4.14728,-2.05784 -3.84401,1.01326 -8.86215,4.48052 -13.17378,3.34396 -2.68296,-0.70722 -28.50008,-3.10944 -30.98275,-1.8006 z"
       id="path839"
       inkscape:connector-curvature="0" />
    <path
       style="fill:none;stroke:#000000;stroke-width:0.49597657px;stroke-linecap:butt;stroke-linejoin:miter;stroke-opacity:1"
       d="m 314.28753,-27.551776 c 0.69855,4.562943 1.38007,8.879599 1.38007,13.823534 0,3.036346 -0.11397,8.2432158 -1.38007,10.9132852 -0.49123,1.0359185 -2.17628,19.7559848 2.07006,15.2786508 0.75478,-0.795848 -1.03505,-5.4879592 -1.03505,-6.9117492 0,-5.46393578 4.07614,-30.6247728 1.38005,-33.4674948"
       id="path841"
       inkscape:connector-curvature="0" />
    <path
       style="fill:none;stroke:#000000;stroke-width:0.54698789px;stroke-linecap:butt;stroke-linejoin:miter;stroke-opacity:1"
       d="m 294.62196,-43.896734 c 0.36809,2.905707 -0.76695,15.829666 0.34501,17.255736 0.75211,0.964492 5.78053,0.939198 6.5552,0.442449 1.93207,-1.238885 5.31315,1.238867 7.2452,0 6.8051,-4.363563 25.85775,4.890021 31.39588,-2.212262 1.45143,-1.8614 2.28322,-6.025289 3.79508,-7.964203 0.004,-0.0018 0.69004,-0.542223 0.69004,-0.442431 0,1.192513 -6.17651,-4.845413 -6.21016,-4.867008 -2.47428,-1.586565 -4.47502,-3.533114 -7.24523,-5.309458 -1.67353,-1.073093 -6.55802,0.442467 -8.62522,0.442467 -3.56892,0 -9.23542,1.276173 -12.76535,3.539645 -2.23819,1.435157 -12.14669,-0.884935 -15.18045,-0.884935 z"
       id="path843"
       inkscape:connector-curvature="0" />
    <path
       style="fill:none;stroke:#000000;stroke-width:0.65047139;stroke-linecap:butt;stroke-linejoin:miter;stroke-miterlimit:4;stroke-dasharray:none;stroke-opacity:1"
       d="m 311.70397,-38.22317 c -8.2163,-1.978943 -9.8991,1.175809 -10.73443,4.791644 -0.25605,1.108265 -0.6655,2.549806 0,3.630018 1.66955,2.710042 13.32229,2.572026 16.37,-0.726003 0.42476,-0.459649 1.24456,-2.131711 0,-2.468408 -3.59859,-0.973542 -4.13163,3.819096 -3.22035,4.065622 3.26092,0.882176 7.26976,-0.917252 9.66099,-1.887613 3.54622,-1.439038 4.20746,-5.792797 3.75704,-7.986037 -0.0454,-0.221068 -0.45742,-2.323237 -0.80505,-2.323237 -1.00831,0 -2.37388,2.19473 -2.68359,2.613634 -3.04608,4.120311 -3.2432,7.828505 2.68359,11.035261"
       id="path871"
       inkscape:connector-curvature="0" />
    <path
       style="fill:none;stroke:#000000;stroke-width:0.65047139;stroke-linecap:butt;stroke-linejoin:miter;stroke-miterlimit:4;stroke-dasharray:none;stroke-opacity:1"
       d="m 319.7548,-38.949173 c 0.1891,-0.533558 -4.02544,4.446043 -4.02544,3.775224 0,-0.174382 0.51659,-0.212348 0.8051,-0.290379"
       id="path873"
       inkscape:connector-curvature="0" />
    <path
       style="fill:none;stroke:#000000;stroke-width:0.5910095px;stroke-linecap:butt;stroke-linejoin:miter;stroke-opacity:1"
       d="m 13.100979,229.55069 c 0.388023,3.21796 -0.808504,17.53082 0.363707,19.11013 0.792824,1.06814 6.093528,1.04011 6.910159,0.48999 2.036668,-1.372 5.600861,1.37202 7.63755,0 7.173568,-4.83249 27.25797,5.41556 33.095991,-2.45 1.530024,-2.06141 2.40686,-6.67285 4.00061,-8.82008 0.0038,-0.002 0.727398,-0.60049 0.727398,-0.48999 0,1.32069 -6.510997,-5.36612 -6.54647,-5.39005 -2.608272,-1.75706 -4.717344,-3.91279 -7.637553,-5.88003 -1.764165,-1.18844 -6.913165,0.49003 -9.092304,0.49003 -3.762175,0 -9.735524,1.41328 -13.456605,3.92003 -2.359376,1.58938 -12.804445,-0.98003 -16.002483,-0.98003 z"
       id="path843-6"
       inkscape:connector-curvature="0" />
    <path
       style="fill:none;stroke:#000000;stroke-width:0.62797672;stroke-linecap:butt;stroke-linejoin:miter;stroke-miterlimit:4;stroke-dasharray:none;stroke-opacity:1"
       d="m 27.139758,234.55212 c -0.539563,-0.72439 -0.900296,-1.85454 -1.745219,-1.85454 -2.817518,0 -4.653962,0.20339 -4.653962,3.03471 0,0.3012 -0.03467,1.31854 0.193905,1.51737 1.243755,1.08137 4.950891,1.5279 5.041786,1.68594 0.686066,1.19297 1.703288,4.7389 -0.193908,5.56365 -1.661791,0.72242 -5.631642,0.66025 -6.399179,-0.67436 -0.2648,-0.46046 -1.440718,-3.07095 -0.581754,-2.69755"
       id="path915"
       inkscape:connector-curvature="0" />
    <path
       style="fill:none;stroke:#000000;stroke-width:0.62797672;stroke-linecap:butt;stroke-linejoin:miter;stroke-miterlimit:4;stroke-dasharray:none;stroke-opacity:1"
       d="m 31.599789,232.86617 c 1.112864,1.28749 -0.665454,11.39171 -0.19388,11.8017 0.198663,0.17253 1.07268,0.21341 1.357377,0.33717 2.534374,1.10172 4.072211,-0.31174 4.072211,-1.68595"
       id="path919"
       inkscape:connector-curvature="0" />
    <path
       style="fill:none;stroke:#000000;stroke-width:0.62797672;stroke-linecap:butt;stroke-linejoin:miter;stroke-miterlimit:4;stroke-dasharray:none;stroke-opacity:1"
       d="m 34.120692,237.08104 c -0.839468,-0.0354 -7.368776,0.16519 -7.368776,-0.50577 0,-0.0263 0.348119,0.15122 0.387842,0.16851 0,-0.73061 0,-1.46118 0,-2.19175"
       id="path921"
       inkscape:connector-curvature="0" />
    <path
       style="fill:none;stroke:#000000;stroke-width:0.62797672;stroke-linecap:butt;stroke-linejoin:miter;stroke-miterlimit:4;stroke-dasharray:none;stroke-opacity:1"
       d="m 43.622507,239.60998 c -4.031809,-3.27999 -6.759948,3.73268 -4.460032,5.73228 0.353794,0.30759 1.6008,0.16848 2.133062,0.16848 2.468983,0 4.115711,-5.52583 3.296546,-6.23801 -0.188456,-0.16391 0.06461,0.73058 -0.19393,0.67437 -0.280425,-0.0609 -0.705523,-0.58102 -0.775646,-0.3372 -0.105151,0.36574 0.462619,0.64908 0.581735,1.01156 0.100598,0.30641 -0.152441,7.85202 1.93915,4.21489"
       id="path923"
       inkscape:connector-curvature="0" />
    <path
       style="fill:none;stroke:#000000;stroke-width:0.62797672;stroke-linecap:butt;stroke-linejoin:miter;stroke-miterlimit:4;stroke-dasharray:none;stroke-opacity:1"
       d="m 48.664274,239.77858 c 1.675191,-0.54157 2.396855,-0.10795 3.296546,0.67439 0.799305,0.6949 -0.331139,2.93614 -0.775646,3.7091 -0.428094,0.74437 0.07686,2.19172 -0.193906,2.19172 -0.0017,0 0.387825,-0.99623 0.387825,-1.85454 0,-1.78797 1.101198,-5.25351 2.326989,-4.72067"
       id="path925"
       inkscape:connector-curvature="0" />
    <path
       style="fill:none;stroke:#000000;stroke-width:0.62797672;stroke-linecap:butt;stroke-linejoin:miter;stroke-miterlimit:4;stroke-dasharray:none;stroke-opacity:1"
       d="m 57.778269,232.86617 c 0.250595,2.3045 -2.310287,7.78443 -0.969576,10.11575 0.815772,1.4185 -0.328545,1.29021 1.357399,2.02312 0.121769,0.053 0.57485,0.34319 0.77568,0.16849 0.681319,-0.59237 1.701681,-3.2962 1.163469,-2.36035"
       id="path927"
       inkscape:connector-curvature="0" />
    <path
       style="fill:none;stroke:#000000;stroke-width:0.62797672;stroke-linecap:butt;stroke-linejoin:miter;stroke-miterlimit:4;stroke-dasharray:none;stroke-opacity:1"
       d="m 59.523508,236.57527 c -1.437212,-0.12323 -4.994796,0.0213 -5.817432,-0.33718"
       id="path929"
       inkscape:connector-curvature="0" />
    <path
       style="fill:none;stroke:#db0000;stroke-width:0.87166917;stroke-linecap:butt;stroke-linejoin:miter;stroke-miterlimit:4;stroke-dasharray:none;stroke-opacity:1"
       d="m 73.417911,251.34481 c 1.004568,-7.15704 -0.93625,-32.22068 1.380037,-37.10525 0.69002,-1.4551 -0.690018,-4.00156 0,-5.45665 0.730048,-1.5395 1.150775,-9.21412 0.345014,-10.91331 -1.330289,-2.80529 -0.7694,-32.20876 0.345006,-34.55881 1.020404,-2.1518 2.486822,-2.6221 3.795109,-4.00156 1.428341,-1.50601 13.588384,-0.58726 14.490402,0.36379 1.09682,1.15648 9.359421,0 11.040321,0 3.36066,0 27.32182,-2.2523 28.29078,-3.27398 0.58602,-0.6179 20.10686,1.35355 22.42563,-1.09133 3.28368,-3.46231 3.10506,-29.6981 3.10506,-36.74146 0,-1.51978 -0.88832,-5.03844 -0.34499,-6.18422 1.35953,-2.86701 2.90246,-12.06818 1.38004,-15.278632 -1.13934,-2.402629 -1.72505,-12.915476 -1.72505,-15.278629 0,-0.462669 -0.2793,-2.615711 0,-2.910231 1.80022,-1.898155 7.96014,-1.481371 8.97025,-2.546409 2.43068,-2.562894 8.61063,-3.258566 10.35028,-5.092904 0.9478,-0.999319 5.84642,0.363785 6.9002,0.363785 9.99834,0 28.26185,-3.289234 36.57102,1.091367 1.55323,0.818839 4.11816,0.113431 5.86516,0.727521 2.26688,0.796749 9.69008,0.711865 11.73031,-0.363773 2.84655,-1.500695 7.24803,1.81739 10.0053,0.363773 5.05935,-2.667286 13.29366,-1.455091 19.32052,-1.455091 2.46151,0 6.51039,-0.02376 8.62524,1.091318 3.45421,1.821045 10.38692,-0.727545 13.8004,-0.727545 0.96453,0 1.99367,-0.161144 2.41508,0.727545 1.16552,2.457833 2.67824,15.90121 1.72503,18.916393 -0.44816,1.417625 -0.83975,4.619258 -0.34501,6.184213 1.27187,4.023199 0,9.037469 0,13.095969 0,2.3825 1.1758,23.34863 1.03503,23.64551 -1.17222,2.47199 -1.38004,11.23983 -1.38004,14.55105 0,1.59538 0.49315,5.30048 -0.34499,6.18421 -1.72407,1.81784 -10.39448,-2.54644 -12.76538,-2.54644 -4.07356,0 -15.03942,-4.43965 -18.63053,-2.54644 -2.2475,1.18492 -30.05793,2.50207 -31.05084,1.45512 -0.81771,-0.86217 -1.46843,-2.36906 -2.07006,-3.63776 -1.25132,-2.63882 0.3143,-11.93992 1.38003,-14.18729 1.25585,-2.64829 -1.65926,-6.68673 -0.34501,-9.45821 1.30967,-2.76183 -0.59054,-7.12152 0.69003,-9.82198 2.06205,-4.34845 0.82719,-17.16766 2.41504,-22.190383 1.18341,-3.743312 -0.68999,-14.828788 -0.68999,-19.643962 0,-7.066771 2.04157,-29.919829 0.34501,-35.286363 -1.08484,-3.431502 -2.41508,-20.046696 -2.41508,-24.373029 0,-3.6769794 -0.0421,-33.991009 1.03503,-34.558818 4.37427,-2.306111 5.14766,0.354117 9.31528,1.818891 1.16723,0.41022 3.82638,0.76053 4.48511,1.455077 0.20833,0.219745 1.74287,0 2.07009,0 4.8086,0 10.46398,0.6463 14.83536,2.182684 4.18038,1.469243 16.9685,-2.182684 22.42564,-2.182684 4.14011,0 8.28025,0 12.42034,0 0.47418,0 1.04475,-0.717284 1.38003,-0.363755 0.40014,0.421883 -2.97837,2.776612 -3.45009,3.273988 -0.86936,0.916646 -2.98915,4.365328 -4.14008,4.365328 -0.14206,0 -1.02744,-2.427865 0.34496,-2.910212"
       id="path6127"
       inkscape:connector-curvature="0" />
    <path
       style="fill:none;stroke:#d50000;stroke-width:0.87166917;stroke-linecap:butt;stroke-linejoin:miter;stroke-miterlimit:4;stroke-dasharray:none;stroke-opacity:1"
       d="m 300.43424,-18.577664 c -3.68881,-0.109996 -7.27475,-2.244987 -8.28023,-4.365293 -0.22608,-0.476847 -3.74181,-2.238916 -3.45011,-2.546474 0.63513,-0.669681 1.43492,1.149229 2.07004,1.818889"
       id="path6129"
       inkscape:connector-curvature="0" />
    <path
       style="fill:none;stroke:#000000;stroke-width:0.49597657px;stroke-linecap:butt;stroke-linejoin:miter;stroke-opacity:1"
       d="m 33.800943,247.66907 c 0.698553,4.56294 1.380055,8.87961 1.380055,13.82354 0,3.03635 -0.11396,8.24322 -1.380055,10.91328 -0.491233,1.03592 -2.176284,19.75599 2.070046,15.27866 0.754791,-0.79585 -1.035042,-5.48796 -1.035042,-6.91175 0,-5.46394 4.076145,-30.62477 1.380056,-33.4675"
       id="path841-7"
       inkscape:connector-curvature="0" />
  </g>
</svg>
